<?xml version="1.0" encoding="utf-8"?>
<!-- Generator: Adobe Illustrator 27.0.0, SVG Export Plug-In . SVG Version: 6.00 Build 0)  -->
<svg version="1.1" id="Layer_7" xmlns="http://www.w3.org/2000/svg" xmlns:xlink="http://www.w3.org/1999/xlink" x="0px" y="0px"
	 viewBox="0 0 594.75 296.84" style="enable-background:new 0 0 594.75 296.84;" xml:space="preserve">
<style type="text/css">
	.st0{fill:#323031;}
	.st1{fill:#FFFFFF;}
	.st2{fill:#37B34A;}
	.st3{font-family:'Impact';}
	.st4{font-size:45.251px;}
	.st5{letter-spacing:0.88;}
</style>
<rect class="st0" width="594.75" height="296.84"/>
<path class="st1" d="M153.07,207L37.1,24.08c-4.81-7.58-16.54-4.18-16.54,4.8v182.93c0,4.95,4.02,8.97,8.97,8.97l115.97-0.01
	C152.57,220.77,156.86,212.97,153.07,207z"/>
<g>
	<path class="st1" d="M334.43,60.35H211.12c-4.95,0-8.97-4.01-8.97-8.97V26.97c0-4.95,4.01-8.97,8.97-8.97h123.31
		c4.95,0,8.97,4.01,8.97,8.97v24.41C343.4,56.33,339.38,60.35,334.43,60.35z"/>
	<path class="st1" d="M334.43,220.77H211.12c-4.95,0-8.97-4.01-8.97-8.97V187.4c0-4.95,4.01-8.97,8.97-8.97h123.31
		c4.95,0,8.97,4.01,8.97,8.97v24.41C343.4,216.76,339.38,220.77,334.43,220.77z"/>
	<path class="st1" d="M294.07,140.06h-82.95c-4.95,0-8.97-4.01-8.97-8.97v-24.41c0-4.95,4.01-8.97,8.97-8.97h82.95
		c4.95,0,8.97,4.01,8.97,8.97v24.41C303.04,136.05,299.03,140.06,294.07,140.06z"/>
</g>
<g>
	<path class="st2" d="M432.97,149.09L432.97,149.09c0-39.05,31.65-70.7,70.7-70.7h0c39.05,0,70.7,31.65,70.7,70.7v0
		c0,39.05-31.65,70.7-70.7,70.7h0C464.63,219.79,432.97,188.14,432.97,149.09z"/>
	<path class="st1" d="M534.18,120.58c0,47.35-47.33,87.03-111,97.52c-9.1,1.5-18.52,2.42-28.18,2.67h0c-2.74,0-4.95-2.22-4.95-4.95
		V25.32c0-2.74,2.22-4.95,4.95-4.95h0c9.66,0.25,19.08,1.14,28.18,2.65C486.85,33.53,534.18,73.21,534.18,120.58z"/>
</g>
<text transform="matrix(1.1394 0 0 1 390.0439 277.0024)" class="st1 st3 st4 st5">WALLS</text>
<rect x="-615.8" y="-2.21" class="st1" width="595.28" height="299.05"/>
<path class="st0" d="M-462.6,206.99L-578.67,23.9c-4.81-7.59-16.56-4.18-16.56,4.81V211.8c0,4.96,4.02,8.98,8.98,8.98l116.07-0.01
	C-463.1,220.77-458.81,212.96-462.6,206.99z"/>
<g>
	<path class="st0" d="M-281.08,60.21h-123.42c-4.96,0-8.98-4.02-8.98-8.98V26.8c0-4.96,4.02-8.98,8.98-8.98h123.42
		c4.96,0,8.98,4.02,8.98,8.98v24.43C-272.1,56.19-276.12,60.21-281.08,60.21z"/>
	<path class="st0" d="M-281.08,220.77h-123.42c-4.96,0-8.98-4.02-8.98-8.98v-24.43c0-4.96,4.02-8.98,8.98-8.98h123.42
		c4.96,0,8.98,4.02,8.98,8.98v24.43C-272.1,216.75-276.12,220.77-281.08,220.77z"/>
	<path class="st0" d="M-321.47,139.99h-83.02c-4.96,0-8.98-4.02-8.98-8.98v-24.43c0-4.96,4.02-8.98,8.98-8.98h83.02
		c4.96,0,8.98,4.02,8.98,8.98v24.43C-312.49,135.97-316.51,139.99-321.47,139.99z"/>
</g>
<g>
	<path class="st2" d="M-182.45,149.02L-182.45,149.02c0-39.08,31.68-70.77,70.77-70.77h0c39.08,0,70.77,31.68,70.77,70.77v0
		c0,39.08-31.68,70.77-70.77,70.77h0C-150.76,219.79-182.45,188.11-182.45,149.02z"/>
	<path class="st0" d="M-81.15,120.49c0,47.39-47.37,87.11-111.1,97.61c-9.11,1.5-18.53,2.42-28.21,2.67h0
		c-2.74,0-4.96-2.22-4.96-4.96V25.15c0-2.74,2.22-4.96,4.96-4.96h0c9.67,0.25,19.1,1.14,28.21,2.65
		C-128.52,33.36-81.15,73.08-81.15,120.49z"/>
</g>
<text transform="matrix(1.1394 0 0 1 -225.4112 277.0026)" class="st0 st3 st5" style="font-size:45.2912px;">WALLS</text>
<g>
	<rect x="761.54" class="st1" width="301.69" height="301.69"/>
	<g>
		<path class="st2" d="M819.05,151.48L819.05,151.48c0-52.85,42.84-95.68,95.68-95.68h0c52.85,0,95.68,42.84,95.68,95.68v0
			c0,52.85-42.84,95.68-95.68,95.68h0C861.89,247.17,819.05,204.33,819.05,151.48z"/>
		<path class="st0" d="M998.89,261.93L820.34,30.99c-4.19-5.41-12.85-2.45-12.85,4.39v230.95c0,3.96,3.21,7.18,7.18,7.18
			l178.55-0.01C999.18,273.5,1002.54,266.65,998.89,261.93z"/>
	</g>
</g>
<g>
	<rect x="1357.85" class="st0" width="301.69" height="301.69"/>
	<g>
		<path class="st2" d="M1415.36,151.48L1415.36,151.48c0-52.85,42.84-95.68,95.68-95.68h0c52.85,0,95.68,42.84,95.68,95.68v0
			c0,52.85-42.84,95.68-95.68,95.68h0C1458.2,247.17,1415.36,204.33,1415.36,151.48z"/>
		<path class="st1" d="M1595.2,261.93L1416.65,30.99c-4.19-5.41-12.85-2.45-12.85,4.39v230.95c0,3.96,3.21,7.18,7.18,7.18
			l178.55-0.01C1595.49,273.5,1598.85,266.65,1595.2,261.93z"/>
	</g>
</g>
</svg>
